<svg width="6430" height="1259" xmlns="http://www.w3.org/2000/svg" xmlns:xlink="http://www.w3.org/1999/xlink" overflow="hidden"><defs><clipPath id="clip0"><rect x="3214" y="2223" width="6430" height="1259"/></clipPath></defs><g clip-path="url(#clip0)" transform="translate(-3214 -2223)"><path d="M6160 2990.25 6259.5 2990.25 6259.5 2952 6336 3028.5 6259.5 3105 6259.5 3066.75 6160 3066.75Z" fill="#4472C4" fill-rule="evenodd"/><path d="M7843 2994.25 7931.5 2994.25 7931.5 2956 8008 3032.5 7931.5 3109 7931.5 3070.75 7843 3070.75Z" fill="#00B050" fill-rule="evenodd"/><text fill="#00B050" font-family="Corbel,Corbel_MSFontService,sans-serif" font-style="italic" font-weight="700" font-size="110" transform="translate(8121.01 2359)">Refined<tspan fill="#000000" font-size="110" x="357.5" y="0"> </tspan><tspan fill="#000000" font-size="110" x="380.417" y="0">(</tspan><tspan fill="#4472C4" font-size="110" x="414.219" y="0">Purified</tspan><tspan fill="#000000" font-size="110" x="782.604" y="0"> </tspan><tspan fill="#000000" font-size="110" x="805.521" y="0">(Protected))</tspan><tspan fill="#000000" font-style="normal" font-size="110" x="1364.11" y="0"> </tspan><tspan font-size="110" x="-366.919" y="516">Refined</tspan><tspan fill="#4472C4" font-size="110" x="-1499.99" y="10">Purified</tspan><tspan fill="#000000" font-size="110" x="-1131.6" y="10"> </tspan><tspan fill="#000000" font-size="110" x="-1108.69" y="10">(Protected) </tspan><tspan fill="#000000" font-size="110" x="-2990.74" y="9">Protected</tspan></text><text fill="#4472C4" font-family="Corbel,Corbel_MSFontService,sans-serif" font-style="italic" font-weight="700" font-size="110" transform="matrix(1 0 0 1 6071 2874)">Purified</text><rect x="3292" y="2440" width="1033" height="1033" stroke="#000000" stroke-width="10.3125" stroke-miterlimit="8" fill="#FFFFFF"/><path d="M3354.44 2898.18C3303.51 2816.22 3451.05 2538.83 3535.36 2510.17 3619.67 2481.5 3691.68 2655.03 3860.3 2726.2 4004.33 2807.9 3925.29 2973.24 3840.98 3001.9 3756.67 3030.56 3405.38 2980.13 3354.44 2898.18Z" fill="#BDD7EE" fill-rule="evenodd"/><path d="M3543 2657C3543 2638.22 3558.22 2623 3577 2623 3595.78 2623 3611 2638.22 3611 2657 3611 2675.78 3595.78 2691 3577 2691 3558.22 2691 3543 2675.78 3543 2657Z" fill="#4472C4" fill-rule="evenodd"/><path d="M3577 2738.5C3577 2719.45 3592.22 2704 3611 2704 3629.78 2704 3645 2719.45 3645 2738.5 3645 2757.55 3629.78 2773 3611 2773 3592.22 2773 3577 2757.55 3577 2738.5Z" fill="#4472C4" fill-rule="evenodd"/><path d="M3635 2675C3635 2656.22 3650.45 2641 3669.5 2641 3688.55 2641 3704 2656.22 3704 2675 3704 2693.78 3688.55 2709 3669.5 2709 3650.45 2709 3635 2693.78 3635 2675Z" fill="#4472C4" fill-rule="evenodd"/><path d="M3505 2749C3505 2730.22 3520.22 2715 3539 2715 3557.78 2715 3573 2730.22 3573 2749 3573 2767.78 3557.78 2783 3539 2783 3520.22 2783 3505 2767.78 3505 2749Z" fill="#4472C4" fill-rule="evenodd"/><path d="M3586 2807.5C3586 2788.45 3601.22 2773 3620 2773 3638.78 2773 3654 2788.45 3654 2807.5 3654 2826.55 3638.78 2842 3620 2842 3601.22 2842 3586 2826.55 3586 2807.5Z" fill="#4472C4" fill-rule="evenodd"/><path d="M3508 2849.5C3508 2830.45 3523.45 2815 3542.5 2815 3561.55 2815 3577 2830.45 3577 2849.5 3577 2868.55 3561.55 2884 3542.5 2884 3523.45 2884 3508 2868.55 3508 2849.5Z" fill="#4472C4" fill-rule="evenodd"/><path d="M3438 2808C3438 2789.22 3453.22 2774 3472 2774 3490.78 2774 3506 2789.22 3506 2808 3506 2826.78 3490.78 2842 3472 2842 3453.22 2842 3438 2826.78 3438 2808Z" fill="#4472C4" fill-rule="evenodd"/><path d="M3723 2761C3723 2742.22 3738.22 2727 3757 2727 3775.78 2727 3791 2742.22 3791 2761 3791 2779.78 3775.78 2795 3757 2795 3738.22 2795 3723 2779.78 3723 2761Z" fill="#4472C4" fill-rule="evenodd"/><path d="M3667 2842.5C3667 2823.45 3682.45 2808 3701.5 2808 3720.55 2808 3736 2823.45 3736 2842.5 3736 2861.55 3720.55 2877 3701.5 2877 3682.45 2877 3667 2861.55 3667 2842.5Z" fill="#4472C4" fill-rule="evenodd"/><path d="M3573 2893.5C3573 2874.45 3588.22 2859 3607 2859 3625.78 2859 3641 2874.45 3641 2893.5 3641 2912.55 3625.78 2928 3607 2928 3588.22 2928 3573 2912.55 3573 2893.5Z" fill="#4472C4" fill-rule="evenodd"/><path d="M3826.65 3377.1C3752.56 3350.15 3733.22 3247.91 3785.5 3203.94 3837.78 3159.97 3970.01 3042.21 4140.33 3113.29 4285.82 3194.89 4282.3 3321.66 4230.02 3365.63 4177.74 3409.59 3900.73 3404.04 3826.65 3377.1Z" fill="#E2F0D9" fill-rule="evenodd"/><path d="M3935 3165.5C3935 3146.45 3950.22 3131 3969 3131 3987.78 3131 4003 3146.45 4003 3165.5 4003 3184.55 3987.78 3200 3969 3200 3950.22 3200 3935 3184.55 3935 3165.5Z" fill="#70AD47" fill-rule="evenodd"/><path d="M4007 3239.5C4007 3220.45 4022.22 3205 4041 3205 4059.78 3205 4075 3220.45 4075 3239.5 4075 3258.55 4059.78 3274 4041 3274 4022.22 3274 4007 3258.55 4007 3239.5Z" fill="#70AD47" fill-rule="evenodd"/><path d="M4079 3171C4079 3152.22 4094.45 3137 4113.5 3137 4132.55 3137 4148 3152.22 4148 3171 4148 3189.78 4132.55 3205 4113.5 3205 4094.45 3205 4079 3189.78 4079 3171Z" fill="#70AD47" fill-rule="evenodd"/><path d="M3847 3232C3847 3213.22 3862.45 3198 3881.5 3198 3900.55 3198 3916 3213.22 3916 3232 3916 3250.78 3900.55 3266 3881.5 3266 3862.45 3266 3847 3250.78 3847 3232Z" fill="#70AD47" fill-rule="evenodd"/><path d="M4027 3318C4027 3299.22 4042.22 3284 4061 3284 4079.78 3284 4095 3299.22 4095 3318 4095 3336.78 4079.78 3352 4061 3352 4042.22 3352 4027 3336.78 4027 3318Z" fill="#70AD47" fill-rule="evenodd"/><path d="M3929 3280.5C3929 3261.45 3944.45 3246 3963.5 3246 3982.55 3246 3998 3261.45 3998 3280.5 3998 3299.55 3982.55 3315 3963.5 3315 3944.45 3315 3929 3299.55 3929 3280.5Z" fill="#70AD47" fill-rule="evenodd"/><path d="M4092 3252.5C4092 3233.45 4107.45 3218 4126.5 3218 4145.55 3218 4161 3233.45 4161 3252.5 4161 3271.55 4145.55 3287 4126.5 3287 4107.45 3287 4092 3271.55 4092 3252.5Z" fill="#70AD47" fill-rule="evenodd"/><text font-family="Corbel,Corbel_MSFontService,sans-serif" font-style="italic" font-weight="700" font-size="110" transform="translate(3710.6 2379)">Clean </text><path d="M4521 2992.25 4619.5 2992.25 4619.5 2954 4696 3030.5 4619.5 3107 4619.5 3068.75 4521 3068.75Z" fill="#F4B183" fill-rule="evenodd"/><text font-family="Corbel,Corbel_MSFontService,sans-serif" font-style="italic" font-weight="700" font-size="110" transform="translate(4432.54 2876)">Protect</text><rect x="4874" y="2441" width="1033" height="1033" stroke="#000000" stroke-width="10.3125" stroke-miterlimit="8" fill="#FFFFFF"/><path d="M4936.44 2899.18C4885.51 2817.22 5033.05 2539.83 5117.36 2511.17 5201.67 2482.5 5273.68 2656.03 5442.3 2727.2 5586.33 2808.9 5507.29 2974.24 5422.98 3002.9 5338.67 3031.56 4987.38 2981.13 4936.44 2899.18Z" fill="#BDD7EE" fill-rule="evenodd"/><path d="M5361 2607.5C5361 2588.45 5376.45 2573 5395.5 2573 5414.55 2573 5430 2588.45 5430 2607.5 5430 2626.55 5414.55 2642 5395.5 2642 5376.45 2642 5361 2626.55 5361 2607.5Z" fill="#4472C4" fill-rule="evenodd"/><path d="M5590 2733.5C5590 2714.45 5605.22 2699 5624 2699 5642.78 2699 5658 2714.45 5658 2733.5 5658 2752.55 5642.78 2768 5624 2768 5605.22 2768 5590 2752.55 5590 2733.5Z" fill="#4472C4" fill-rule="evenodd"/><path d="M5649 2699.5C5649 2680.45 5664.45 2665 5683.5 2665 5702.55 2665 5718 2680.45 5718 2699.5 5718 2718.55 5702.55 2734 5683.5 2734 5664.45 2734 5649 2718.55 5649 2699.5Z" fill="#4472C4" fill-rule="evenodd"/><path d="M5637 2820.5C5637 2801.45 5652.22 2786 5671 2786 5689.78 2786 5705 2801.45 5705 2820.5 5705 2839.55 5689.78 2855 5671 2855 5652.22 2855 5637 2839.55 5637 2820.5Z" fill="#4472C4" fill-rule="evenodd"/><path d="M5038 3353.5C5038 3334.45 5053.45 3319 5072.5 3319 5091.55 3319 5107 3334.45 5107 3353.5 5107 3372.55 5091.55 3388 5072.5 3388 5053.45 3388 5038 3372.55 5038 3353.5Z" fill="#4472C4" fill-rule="evenodd"/><path d="M5066 3233C5066 3214.22 5081.22 3199 5100 3199 5118.78 3199 5134 3214.22 5134 3233 5134 3251.78 5118.78 3267 5100 3267 5081.22 3267 5066 3251.78 5066 3233Z" fill="#4472C4" fill-rule="evenodd"/><path d="M5741 2828.5C5741 2809.45 5756.45 2794 5775.5 2794 5794.55 2794 5810 2809.45 5810 2828.5 5810 2847.55 5794.55 2863 5775.5 2863 5756.45 2863 5741 2847.55 5741 2828.5Z" fill="#4472C4" fill-rule="evenodd"/><path d="M5017 3224.5C5017 3205.45 5032.22 3190 5051 3190 5069.78 3190 5085 3205.45 5085 3224.5 5085 3243.55 5069.78 3259 5051 3259 5032.22 3259 5017 3243.55 5017 3224.5Z" fill="#4472C4" fill-rule="evenodd"/><path d="M5612 2641.5C5612 2622.45 5627.22 2607 5646 2607 5664.78 2607 5680 2622.45 5680 2641.5 5680 2660.55 5664.78 2676 5646 2676 5627.22 2676 5612 2660.55 5612 2641.5Z" fill="#4472C4" fill-rule="evenodd"/><path d="M4923 3240.5C4923 3221.45 4938.45 3206 4957.5 3206 4976.55 3206 4992 3221.45 4992 3240.5 4992 3259.55 4976.55 3275 4957.5 3275 4938.45 3275 4923 3259.55 4923 3240.5Z" fill="#4472C4" fill-rule="evenodd"/><path d="M5408.65 3378.1C5334.56 3351.15 5315.22 3248.91 5367.5 3204.94 5419.78 3160.97 5552.01 3043.21 5722.33 3114.29 5867.82 3195.89 5864.3 3322.66 5812.02 3366.63 5759.74 3410.59 5482.73 3405.04 5408.65 3378.1Z" fill="#E2F0D9" fill-rule="evenodd"/><path d="M5004 3144.5C5004 3125.45 5019.22 3110 5038 3110 5056.78 3110 5072 3125.45 5072 3144.5 5072 3163.55 5056.78 3179 5038 3179 5019.22 3179 5004 3163.55 5004 3144.5Z" fill="#70AD47" fill-rule="evenodd"/><path d="M5071 3353.5C5071 3334.45 5086.22 3319 5105 3319 5123.78 3319 5139 3334.45 5139 3353.5 5139 3372.55 5123.78 3388 5105 3388 5086.22 3388 5071 3372.55 5071 3353.5Z" fill="#70AD47" fill-rule="evenodd"/><path d="M4953 3275C4953 3256.22 4968.45 3241 4987.5 3241 5006.55 3241 5022 3256.22 5022 3275 5022 3293.78 5006.55 3309 4987.5 3309 4968.45 3309 4953 3293.78 4953 3275Z" fill="#70AD47" fill-rule="evenodd"/><path d="M5674 2760C5674 2741.22 5689.45 2726 5708.5 2726 5727.55 2726 5743 2741.22 5743 2760 5743 2778.78 5727.55 2794 5708.5 2794 5689.45 2794 5674 2778.78 5674 2760Z" fill="#70AD47" fill-rule="evenodd"/><path d="M5511 2578.5C5511 2559.45 5526.22 2544 5545 2544 5563.78 2544 5579 2559.45 5579 2578.5 5579 2597.55 5563.78 2613 5545 2613 5526.22 2613 5511 2597.55 5511 2578.5Z" fill="#70AD47" fill-rule="evenodd"/><path d="M5717 3019.5C5717 3000.45 5732.22 2985 5751 2985 5769.78 2985 5785 3000.45 5785 3019.5 5785 3038.55 5769.78 3054 5751 3054 5732.22 3054 5717 3038.55 5717 3019.5Z" fill="#70AD47" fill-rule="evenodd"/><path d="M5717 2641.5C5717 2622.45 5732.22 2607 5751 2607 5769.78 2607 5785 2622.45 5785 2641.5 5785 2660.55 5769.78 2676 5751 2676 5732.22 2676 5717 2660.55 5717 2641.5Z" fill="#70AD47" fill-rule="evenodd"/><rect x="8228" y="2444" width="1033" height="1033" stroke="#000000" stroke-width="10.3125" stroke-miterlimit="8" fill="#FFFFFF"/><path d="M8290.42 2903.18C8239.57 2821.22 8386.87 2543.83 8471.04 2515.17 8555.2 2486.5 8627.1 2660.03 8795.43 2731.2 8939.22 2812.9 8860.31 2978.24 8776.14 3006.9 8691.98 3035.56 8341.28 2985.13 8290.42 2903.18Z" fill="#BDD7EE" fill-rule="evenodd"/><path d="M8509 2623.5C8509 2604.45 8524.45 2589 8543.5 2589 8562.55 2589 8578 2604.45 8578 2623.5 8578 2642.55 8562.55 2658 8543.5 2658 8524.45 2658 8509 2642.55 8509 2623.5Z" fill="#4472C4" fill-rule="evenodd"/><path d="M8559 2727.5C8559 2708.45 8574.22 2693 8593 2693 8611.78 2693 8627 2708.45 8627 2727.5 8627 2746.55 8611.78 2762 8593 2762 8574.22 2762 8559 2746.55 8559 2727.5Z" fill="#4472C4" fill-rule="evenodd"/><path d="M8645 2755.5C8645 2736.45 8660.22 2721 8679 2721 8697.78 2721 8713 2736.45 8713 2755.5 8713 2774.55 8697.78 2790 8679 2790 8660.22 2790 8645 2774.55 8645 2755.5Z" fill="#4472C4" fill-rule="evenodd"/><path d="M8419 2705.5C8419 2686.45 8434.22 2671 8453 2671 8471.78 2671 8487 2686.45 8487 2705.5 8487 2724.55 8471.78 2740 8453 2740 8434.22 2740 8419 2724.55 8419 2705.5Z" fill="#4472C4" fill-rule="evenodd"/><path d="M8529 2797.5C8529 2778.45 8544.22 2763 8563 2763 8581.78 2763 8597 2778.45 8597 2797.5 8597 2816.55 8581.78 2832 8563 2832 8544.22 2832 8529 2816.55 8529 2797.5Z" fill="#4472C4" fill-rule="evenodd"/><path d="M8453 2903.5C8453 2884.45 8468.45 2869 8487.5 2869 8506.55 2869 8522 2884.45 8522 2903.5 8522 2922.55 8506.55 2938 8487.5 2938 8468.45 2938 8453 2922.55 8453 2903.5Z" fill="#4472C4" fill-rule="evenodd"/><path d="M8419 2786.5C8419 2767.45 8434.22 2752 8453 2752 8471.78 2752 8487 2767.45 8487 2786.5 8487 2805.55 8471.78 2821 8453 2821 8434.22 2821 8419 2805.55 8419 2786.5Z" fill="#4472C4" fill-rule="evenodd"/><path d="M8761 2796C8761 2777.22 8776.22 2762 8795 2762 8813.78 2762 8829 2777.22 8829 2796 8829 2814.78 8813.78 2830 8795 2830 8776.22 2830 8761 2814.78 8761 2796Z" fill="#4472C4" fill-rule="evenodd"/><path d="M8615 2861.5C8615 2842.45 8630.22 2827 8649 2827 8667.78 2827 8683 2842.45 8683 2861.5 8683 2880.55 8667.78 2896 8649 2896 8630.22 2896 8615 2880.55 8615 2861.5Z" fill="#4472C4" fill-rule="evenodd"/><path d="M8558 2936.5C8558 2917.45 8573.22 2902 8592 2902 8610.78 2902 8626 2917.45 8626 2936.5 8626 2955.55 8610.78 2971 8592 2971 8573.22 2971 8558 2955.55 8558 2936.5Z" fill="#4472C4" fill-rule="evenodd"/><path d="M8762.65 3382.03C8688.56 3354.99 8669.22 3252.42 8721.5 3208.31 8773.78 3164.2 8906.01 3046.05 9076.33 3117.37 9221.82 3199.23 9218.3 3326.41 9166.02 3370.52 9113.74 3414.63 8836.73 3409.06 8762.65 3382.03Z" fill="#E2F0D9" fill-rule="evenodd"/><path d="M8926 3165C8926 3146.22 8941.22 3131 8960 3131 8978.78 3131 8994 3146.22 8994 3165 8994 3183.78 8978.78 3199 8960 3199 8941.22 3199 8926 3183.78 8926 3165Z" fill="#70AD47" fill-rule="evenodd"/><path d="M8928 3237.5C8928 3218.45 8943.22 3203 8962 3203 8980.78 3203 8996 3218.45 8996 3237.5 8996 3256.55 8980.78 3272 8962 3272 8943.22 3272 8928 3256.55 8928 3237.5Z" fill="#70AD47" fill-rule="evenodd"/><path d="M9062 3167.5C9062 3148.45 9077.45 3133 9096.5 3133 9115.55 3133 9131 3148.45 9131 3167.5 9131 3186.55 9115.55 3202 9096.5 3202 9077.45 3202 9062 3186.55 9062 3167.5Z" fill="#70AD47" fill-rule="evenodd"/><path d="M8783 3236.5C8783 3217.45 8798.45 3202 8817.5 3202 8836.55 3202 8852 3217.45 8852 3236.5 8852 3255.55 8836.55 3271 8817.5 3271 8798.45 3271 8783 3255.55 8783 3236.5Z" fill="#70AD47" fill-rule="evenodd"/><path d="M8999 3334C8999 3315.22 9014.45 3300 9033.5 3300 9052.55 3300 9068 3315.22 9068 3334 9068 3352.78 9052.55 3368 9033.5 3368 9014.45 3368 8999 3352.78 8999 3334Z" fill="#70AD47" fill-rule="evenodd"/><path d="M8829 3312.5C8829 3293.45 8844.45 3278 8863.5 3278 8882.55 3278 8898 3293.45 8898 3312.5 8898 3331.55 8882.55 3347 8863.5 3347 8844.45 3347 8829 3331.55 8829 3312.5Z" fill="#70AD47" fill-rule="evenodd"/><path d="M9025 3240C9025 3221.22 9040.45 3206 9059.5 3206 9078.55 3206 9094 3221.22 9094 3240 9094 3258.78 9078.55 3274 9059.5 3274 9040.45 3274 9025 3258.78 9025 3240Z" fill="#70AD47" fill-rule="evenodd"/><rect x="6583" y="2435" width="1032" height="1033" stroke="#000000" stroke-width="10.3125" stroke-miterlimit="8" fill="#FFFFFF"/><path d="M6644.44 2893.96C6593.51 2811.84 6741.05 2533.89 6825.36 2505.17 6909.67 2476.45 6981.68 2650.32 7150.3 2721.64 7294.33 2803.5 7215.29 2969.16 7130.98 2997.88 7046.67 3026.6 6695.38 2976.08 6644.44 2893.96Z" fill="#BDD7EE" fill-rule="evenodd"/><path d="M6933 2765.5C6933 2746.45 6948.45 2731 6967.5 2731 6986.55 2731 7002 2746.45 7002 2765.5 7002 2784.55 6986.55 2800 6967.5 2800 6948.45 2800 6933 2784.55 6933 2765.5Z" fill="#4472C4" fill-rule="evenodd"/><path d="M7061 2587C7061 2568.22 7076.22 2553 7095 2553 7113.78 2553 7129 2568.22 7129 2587 7129 2605.78 7113.78 2621 7095 2621 7076.22 2621 7061 2605.78 7061 2587Z" fill="#4472C4" fill-rule="evenodd"/><path d="M7138 2578.5C7138 2559.45 7153.22 2544 7172 2544 7190.78 2544 7206 2559.45 7206 2578.5 7206 2597.55 7190.78 2613 7172 2613 7153.22 2613 7138 2597.55 7138 2578.5Z" fill="#4472C4" fill-rule="evenodd"/><path d="M6985 2634.5C6985 2615.45 7000.45 2600 7019.5 2600 7038.55 2600 7054 2615.45 7054 2634.5 7054 2653.55 7038.55 2669 7019.5 2669 7000.45 2669 6985 2653.55 6985 2634.5Z" fill="#4472C4" fill-rule="evenodd"/><path d="M7073 2683C7073 2664.22 7088.45 2649 7107.5 2649 7126.55 2649 7142 2664.22 7142 2683 7142 2701.78 7126.55 2717 7107.5 2717 7088.45 2717 7073 2701.78 7073 2683Z" fill="#4472C4" fill-rule="evenodd"/><path d="M7012 2756.5C7012 2737.45 7027.22 2722 7046 2722 7064.78 2722 7080 2737.45 7080 2756.5 7080 2775.55 7064.78 2791 7046 2791 7027.22 2791 7012 2775.55 7012 2756.5Z" fill="#4472C4" fill-rule="evenodd"/><path d="M6859 2690.5C6859 2671.45 6874.22 2656 6893 2656 6911.78 2656 6927 2671.45 6927 2690.5 6927 2709.55 6911.78 2725 6893 2725 6874.22 2725 6859 2709.55 6859 2690.5Z" fill="#4472C4" fill-rule="evenodd"/><path d="M7217 2672C7217 2653.22 7232.45 2638 7251.5 2638 7270.55 2638 7286 2653.22 7286 2672 7286 2690.78 7270.55 2706 7251.5 2706 7232.45 2706 7217 2690.78 7217 2672Z" fill="#4472C4" fill-rule="evenodd"/><path d="M7173 2761C7173 2742.22 7188.45 2727 7207.5 2727 7226.55 2727 7242 2742.22 7242 2761 7242 2779.78 7226.55 2795 7207.5 2795 7188.45 2795 7173 2779.78 7173 2761Z" fill="#4472C4" fill-rule="evenodd"/><path d="M7082 2811C7082 2792.22 7097.22 2777 7116 2777 7134.78 2777 7150 2792.22 7150 2811 7150 2829.78 7134.78 2845 7116 2845 7097.22 2845 7082 2829.78 7082 2811Z" fill="#4472C4" fill-rule="evenodd"/><path d="M7117.51 3372.1C7043.57 3345.15 7024.27 3242.91 7076.44 3198.94 7128.62 3154.97 7260.59 3037.21 7430.58 3108.29 7575.78 3189.89 7572.26 3316.66 7520.08 3360.63 7467.91 3404.59 7191.45 3399.04 7117.51 3372.1Z" fill="#E2F0D9" fill-rule="evenodd"/><path d="M7308 3005.5C7308 2986.45 7323.45 2971 7342.5 2971 7361.55 2971 7377 2986.45 7377 3005.5 7377 3024.55 7361.55 3040 7342.5 3040 7323.45 3040 7308 3024.55 7308 3005.5Z" fill="#70AD47" fill-rule="evenodd"/><path d="M7352 3107.5C7352 3088.45 7367.22 3073 7386 3073 7404.78 3073 7420 3088.45 7420 3107.5 7420 3126.55 7404.78 3142 7386 3142 7367.22 3142 7352 3126.55 7352 3107.5Z" fill="#70AD47" fill-rule="evenodd"/><path d="M7400 3031.5C7400 3012.45 7415.22 2997 7434 2997 7452.78 2997 7468 3012.45 7468 3031.5 7468 3050.55 7452.78 3066 7434 3066 7415.22 3066 7400 3050.55 7400 3031.5Z" fill="#70AD47" fill-rule="evenodd"/><path d="M7245 3074.5C7245 3055.45 7260.22 3040 7279 3040 7297.78 3040 7313 3055.45 7313 3074.5 7313 3093.55 7297.78 3109 7279 3109 7260.22 3109 7245 3093.55 7245 3074.5Z" fill="#70AD47" fill-rule="evenodd"/><path d="M7372 3186C7372 3167.22 7387.22 3152 7406 3152 7424.78 3152 7440 3167.22 7440 3186 7440 3204.78 7424.78 3220 7406 3220 7387.22 3220 7372 3204.78 7372 3186Z" fill="#70AD47" fill-rule="evenodd"/><path d="M7256 3176.5C7256 3157.45 7271.22 3142 7290 3142 7308.78 3142 7324 3157.45 7324 3176.5 7324 3195.55 7308.78 3211 7290 3211 7271.22 3211 7256 3195.55 7256 3176.5Z" fill="#70AD47" fill-rule="evenodd"/><path d="M7437 3120.5C7437 3101.45 7452.45 3086 7471.5 3086 7490.55 3086 7506 3101.45 7506 3120.5 7506 3139.55 7490.55 3155 7471.5 3155 7452.45 3155 7437 3139.55 7437 3120.5Z" fill="#70AD47" fill-rule="evenodd"/></g></svg>