<svg width="4437" height="1568" xmlns="http://www.w3.org/2000/svg" xmlns:xlink="http://www.w3.org/1999/xlink" overflow="hidden"><defs><clipPath id="clip0"><rect x="4208" y="4427" width="4437" height="1568"/></clipPath><clipPath id="clip1"><rect x="4363" y="4426" width="4281" height="1568"/></clipPath><clipPath id="clip2"><rect x="4363" y="4426" width="4281" height="1568"/></clipPath><clipPath id="clip3"><rect x="5522" y="4527" width="3096" height="1168"/></clipPath><clipPath id="clip4"><rect x="5522" y="4527" width="3096" height="1168"/></clipPath><clipPath id="clip5"><rect x="5522" y="4527" width="3096" height="1168"/></clipPath><clipPath id="clip6"><rect x="5522" y="4527" width="3096" height="1168"/></clipPath><clipPath id="clip7"><rect x="5522" y="4527" width="3096" height="1168"/></clipPath><clipPath id="clip8"><rect x="5522" y="4527" width="3096" height="1168"/></clipPath><clipPath id="clip9"><rect x="5522" y="4527" width="3096" height="1168"/></clipPath><clipPath id="clip10"><rect x="4363" y="4426" width="4281" height="1568"/></clipPath><clipPath id="clip11"><rect x="4363" y="4426" width="4281" height="1568"/></clipPath><clipPath id="clip12"><rect x="4363" y="4426" width="4281" height="1568"/></clipPath><clipPath id="clip13"><rect x="4363" y="4426" width="4281" height="1568"/></clipPath><clipPath id="clip14"><rect x="4363" y="4426" width="4281" height="1568"/></clipPath><clipPath id="clip15"><rect x="4363" y="4426" width="4281" height="1568"/></clipPath><clipPath id="clip16"><rect x="4363" y="4426" width="4281" height="1568"/></clipPath><clipPath id="clip17"><rect x="4363" y="4426" width="4281" height="1568"/></clipPath><clipPath id="clip18"><rect x="4363" y="4426" width="4281" height="1568"/></clipPath><clipPath id="clip19"><rect x="4363" y="4426" width="4281" height="1568"/></clipPath><clipPath id="clip20"><rect x="4363" y="4426" width="4281" height="1568"/></clipPath><clipPath id="clip21"><rect x="4363" y="4426" width="4281" height="1568"/></clipPath><clipPath id="clip22"><rect x="4363" y="4426" width="4281" height="1568"/></clipPath><clipPath id="clip23"><rect x="4363" y="4426" width="4281" height="1568"/></clipPath><clipPath id="clip24"><rect x="4363" y="4426" width="4281" height="1568"/></clipPath><clipPath id="clip25"><rect x="4363" y="4426" width="4281" height="1568"/></clipPath><clipPath id="clip26"><rect x="4363" y="4426" width="4281" height="1568"/></clipPath><clipPath id="clip27"><rect x="4363" y="4426" width="4281" height="1568"/></clipPath><clipPath id="clip28"><rect x="4363" y="4426" width="4281" height="1568"/></clipPath><clipPath id="clip29"><rect x="4363" y="4426" width="4281" height="1568"/></clipPath><clipPath id="clip30"><rect x="4363" y="4426" width="4281" height="1568"/></clipPath><clipPath id="clip31"><rect x="4363" y="4426" width="4281" height="1568"/></clipPath><clipPath id="clip32"><rect x="4363" y="4426" width="4281" height="1568"/></clipPath><clipPath id="clip33"><rect x="4363" y="4426" width="4281" height="1568"/></clipPath><clipPath id="clip34"><rect x="4363" y="4426" width="4281" height="1568"/></clipPath><clipPath id="clip35"><rect x="4363" y="4426" width="4281" height="1568"/></clipPath><clipPath id="clip36"><rect x="4363" y="4426" width="4281" height="1568"/></clipPath><clipPath id="clip37"><rect x="4363" y="4426" width="4281" height="1568"/></clipPath><clipPath id="clip38"><rect x="4363" y="4426" width="4281" height="1568"/></clipPath><clipPath id="clip39"><rect x="4363" y="4426" width="4281" height="1568"/></clipPath></defs><g clip-path="url(#clip0)" transform="translate(-4208 -4427)"><rect x="4506" y="4614" width="626" height="125" fill="#FBE5D6"/><rect x="7666" y="4526" width="133" height="1168" fill="#FBE5D6"/><rect x="6640" y="4527" width="132" height="1163" fill="#FBE5D6"/><rect x="5610" y="4527" width="132" height="1163" fill="#FBE5D6"/><rect x="0" y="0" width="623" height="124" fill="#E2F0D9" transform="matrix(1 0 0 -1 4508 5515)"/><rect x="0" y="0" width="134" height="1163" fill="#E2F0D9" transform="matrix(-1 0 0 1 8531 4528)"/><rect x="0" y="0" width="133" height="1162" fill="#E2F0D9" transform="matrix(-1 0 0 1 7501 4525)"/><rect x="0" y="0" width="134" height="1163" fill="#E2F0D9" transform="matrix(-1 0 0 1 6467 4528)"/><rect x="0" y="0" width="625" height="664" fill="#DAE3F3" transform="matrix(1 0 0 -1 4508 5403)"/><rect x="0" y="0" width="603" height="1166" fill="#DAE3F3" transform="matrix(-1 0 0 1 8398 4528)"/><rect x="0" y="0" width="600" height="1166" fill="#DAE3F3" transform="matrix(-1 0 0 1 7370 4525)"/><rect x="0" y="0" width="599" height="1166" fill="#DAE3F3" transform="matrix(-1 0 0 1 6341 4525)"/><g clip-path="url(#clip1)"><path d="M5522.5 5458.68 8615.5 5458.68M5522.5 5225.67 8615.5 5225.67M5522.5 4993.66 8615.5 4993.66M5522.5 4760.66 8615.5 4760.66M5522.5 4527.5 8615.5 4527.5" stroke="#D9D9D9" stroke-width="3.4375" stroke-linejoin="round" stroke-miterlimit="10" fill="none"/></g><g clip-path="url(#clip2)"><rect x="5522.5" y="4527.5" width="3093" height="1164" stroke="#000000" stroke-width="3.4375" stroke-linejoin="round" stroke-miterlimit="10" fill="none"/></g><g clip-path="url(#clip3)"><path d="M5627.18 5500.18 5722.19 5500.18 5722.19 5692 5627.18 5692ZM6658.22 5566.18 6753.22 5566.18 6753.22 5692 6658.22 5692ZM7689.25 5646.19 7784.26 5646.19 7784.26 5692 7689.25 5692Z" fill="#ED7D31"/></g><g clip-path="url(#clip4)"><path d="M5748.19 5570.18 5843.19 5570.18 5843.19 5692 5748.19 5692ZM6779.22 5440.18 6874.23 5440.18 6874.23 5692 6779.22 5692ZM7810.26 5546.18 7905.26 5546.18 7905.26 5692 7810.26 5692Z" fill="#8497B0"/></g><g clip-path="url(#clip5)"><path d="M5869.19 5522.18 5965.2 5522.18 5965.2 5692 5869.19 5692ZM6900.23 5233.17 6995.23 5233.17 6995.23 5692 6900.23 5692ZM7931.26 5502.18 8026.26 5502.18 8026.26 5692 7931.26 5692Z" fill="#4472C4"/></g><g clip-path="url(#clip6)"><path d="M5990.2 5679.19 6086.2 5679.19 6086.2 5692 5990.2 5692ZM7021.23 5592.18 7116.23 5592.18 7116.23 5692 7021.23 5692ZM8052.26 5558.18 8147.27 5558.18 8147.27 5692 8052.26 5692Z" fill="#9DC3E6"/></g><g clip-path="url(#clip7)"><path d="M6111.2 5351.18 6207.2 5351.18 6207.2 5692 6111.2 5692ZM7142.23 5103.17 7238.24 5103.17 7238.24 5692 7142.23 5692ZM8173.27 5243.17 8268.27 5243.17 8268.27 5692 8173.27 5692Z" fill="#2F5597"/></g><g clip-path="url(#clip8)"><path d="M6232.2 5166.17 6328.21 5166.17 6328.21 5692 6232.2 5692ZM7263.24 4787.16 7359.24 4787.16 7359.24 5692 7263.24 5692ZM8294.27 4862.16 8389.28 4862.16 8389.28 5692 8294.27 5692Z" fill="#8FAADC"/></g><g clip-path="url(#clip9)"><path d="M6354.21 4804.16 6449.21 4804.16 6449.21 5692 6354.21 5692ZM7384.24 4689.15 7480.25 4689.15 7480.25 5692 7384.24 5692ZM8415.28 4725.16 8511.28 4725.16 8511.28 5692 8415.28 5692Z" fill="#00B050"/></g><g clip-path="url(#clip10)"><path d="M0 0 0.000360892 1164" stroke="#000000" stroke-width="3.4375" stroke-linejoin="round" stroke-miterlimit="10" fill="none" fill-rule="evenodd" transform="matrix(1 0 0 -1 5522.5 5691.5)"/></g><g clip-path="url(#clip11)"><path d="M5497.5 5691.5 5522.5 5691.5M5497.5 5458.68 5522.5 5458.68M5497.5 5225.67 5522.5 5225.67M5497.5 4993.66 5522.5 4993.66M5497.5 4760.66 5522.5 4760.66M5497.5 4527.5 5522.5 4527.5" stroke="#000000" stroke-width="3.4375" stroke-linejoin="round" stroke-miterlimit="10" fill="none"/></g><g clip-path="url(#clip12)"><path d="M5522.5 5691.5 8615.5 5691.5" stroke="#000000" stroke-width="3.4375" stroke-linejoin="round" stroke-miterlimit="10" fill="none" fill-rule="evenodd"/></g><g clip-path="url(#clip13)"><path d="M6038.5 5691.5 6038.5 5710.5M7068.73 5691.5 7068.73 5710.5M8099.77 5691.5 8099.77 5710.5M8615.5 5691.5 8615.5 5710.5" stroke="#000000" stroke-width="3.4375" stroke-linejoin="round" stroke-miterlimit="10" fill="none"/></g><g clip-path="url(#clip14)"><text font-family="Arial,Arial_MSFontService,sans-serif" font-weight="400" font-size="83" transform="matrix(1 0 0 1 5337.07 5718)">0.0</text></g><g clip-path="url(#clip15)"><text font-family="Arial,Arial_MSFontService,sans-serif" font-weight="400" font-size="83" transform="matrix(1 0 0 1 5337.07 5485)">0.2</text></g><g clip-path="url(#clip16)"><text font-family="Arial,Arial_MSFontService,sans-serif" font-weight="400" font-size="83" transform="matrix(1 0 0 1 5337.07 5252)">0.4</text></g><g clip-path="url(#clip17)"><text font-family="Arial,Arial_MSFontService,sans-serif" font-weight="400" font-size="83" transform="matrix(1 0 0 1 5337.07 5020)">0.6</text></g><g clip-path="url(#clip18)"><text font-family="Arial,Arial_MSFontService,sans-serif" font-weight="400" font-size="83" transform="matrix(1 0 0 1 5337.07 4787)">0.8</text></g><g clip-path="url(#clip19)"><text font-family="Arial,Arial_MSFontService,sans-serif" font-weight="400" font-size="83" transform="matrix(1 0 0 1 5337.07 4554)">1.0</text></g><g clip-path="url(#clip20)"><text font-family="Arial,Arial_MSFontService,sans-serif" font-weight="400" font-size="83" transform="matrix(1 0 0 1 5875.36 5816)">AntiFake</text></g><g clip-path="url(#clip21)"><text font-family="Arial,Arial_MSFontService,sans-serif" font-weight="400" font-size="83" transform="matrix(1 0 0 1 6897.04 5816)">AttackVC</text></g><g clip-path="url(#clip22)"><text font-family="Arial,Arial_MSFontService,sans-serif" font-weight="400" font-size="83" transform="matrix(1 0 0 1 7881.97 5816)">VoiceGuard</text></g><g clip-path="url(#clip23)"><text font-family="Arial,Arial_MSFontService,sans-serif" font-weight="400" font-size="83" transform="matrix(6.12323e-17 -1 1 6.12323e-17 5280.08 5706)">Speaker Verification Accuracy  </text></g><g clip-path="url(#clip24)"><text font-family="Arial,Arial_MSFontService,sans-serif" font-weight="400" font-size="83" transform="matrix(6.12323e-17 -1 1 6.12323e-17 5280.08 4560)">↑</text></g><g clip-path="url(#clip25)"><text font-family="Arial,Arial_MSFontService,sans-serif" font-weight="400" font-size="83" transform="matrix(1 0 0 1 6713.58 5924)">Protection Methods</text></g><g clip-path="url(#clip26)"><rect x="4531" y="4673" width="41" height="42" fill="#ED7D31"/></g><g clip-path="url(#clip27)"><text font-family="Arial,Arial_MSFontService,sans-serif" font-weight="400" font-size="83" transform="matrix(1 0 0 1 4591.22 4721)">Protected</text></g><g clip-path="url(#clip28)"><rect x="4531" y="4801" width="41" height="42" fill="#8497B0"/></g><g clip-path="url(#clip29)"><text font-family="Arial,Arial_MSFontService,sans-serif" font-weight="400" font-size="83" transform="matrix(1 0 0 1 4591.22 4848)">WaveGuard</text></g><g clip-path="url(#clip30)"><rect x="4531" y="4929" width="41" height="42" fill="#4472C4"/></g><g clip-path="url(#clip31)"><text font-family="Arial,Arial_MSFontService,sans-serif" font-weight="400" font-size="83" transform="matrix(1 0 0 1 4591.22 4976)">SpeakerGuard</text></g><g clip-path="url(#clip32)"><rect x="4531" y="5057" width="41" height="42" fill="#9DC3E6"/></g><g clip-path="url(#clip33)"><text font-family="Arial,Arial_MSFontService,sans-serif" font-weight="400" font-size="83" transform="matrix(1 0 0 1 4591.22 5104)">DualPure</text></g><g clip-path="url(#clip34)"><rect x="4531" y="5185" width="41" height="41" fill="#2F5597"/></g><g clip-path="url(#clip35)"><text font-family="Arial,Arial_MSFontService,sans-serif" font-weight="400" font-size="83" transform="matrix(1 0 0 1 4591.22 5232)">WavePurifier</text></g><g clip-path="url(#clip36)"><rect x="4531" y="5313" width="41" height="41" fill="#8FAADC"/></g><g clip-path="url(#clip37)"><text font-family="Arial,Arial_MSFontService,sans-serif" font-weight="400" font-size="83" transform="matrix(1 0 0 1 4591.22 5360)">AudioPure</text></g><g clip-path="url(#clip38)"><rect x="4531" y="5441" width="41" height="41.0005" fill="#00B050"/></g><g clip-path="url(#clip39)"><text font-family="Arial,Arial_MSFontService,sans-serif" font-weight="400" font-size="83" transform="matrix(1 0 0 1 4591.22 5488)">Ours</text></g><path d="M4497 5391C4474.36 5391 4456 5387.94 4456 5384.17L4456 5080.33C4456 5076.56 4437.64 5073.5 4415 5073.5 4437.64 5073.5 4456 5070.44 4456 5066.67L4456 4762.83C4456 4759.06 4474.36 4756 4497 4756" stroke="#4472C4" stroke-width="13.75" stroke-miterlimit="8" fill="none" fill-rule="evenodd"/><text font-family="Arial,Arial_MSFontService,sans-serif" font-weight="400" font-size="92" transform="matrix(-1.83697e-16 -1 1 -1.83697e-16 4324.9 5491)">Existing Purifications</text></g></svg>